<mxfile host="app.diagrams.net" modified="2022-06-21T20:14:37.562Z" agent="5.0 (Macintosh; Intel Mac OS X 10_15_7) AppleWebKit/537.36 (KHTML, like Gecko) Chrome/102.0.5005.61 Safari/537.36" etag="YmhDUOqX4FN4H0TasNru" version="19.0.3" type="github" pages="2">
  <diagram name="Page-1" id="97916047-d0de-89f5-080d-49f4d83e522f">
    <mxGraphModel dx="2703" dy="1591" grid="1" gridSize="10" guides="1" tooltips="1" connect="1" arrows="1" fold="1" page="1" pageScale="1.5" pageWidth="1169" pageHeight="827" background="none" math="0" shadow="0">
      <root>
        <mxCell id="0" />
        <mxCell id="1" parent="0" />
        <mxCell id="2" value="Process Invoices" style="rounded=1;fillColor=#10739E;strokeColor=none;shadow=1;gradientColor=none;fontStyle=1;fontColor=#FFFFFF;fontSize=14;" parent="1" vertex="1">
          <mxGeometry x="932" y="185.5" width="200" height="60" as="geometry" />
        </mxCell>
        <mxCell id="4" value="Open files" style="rounded=1;fillColor=#10739E;strokeColor=none;shadow=1;gradientColor=none;fontStyle=1;fontColor=#FFFFFF;fontSize=14;" parent="1" vertex="1">
          <mxGeometry x="562" y="354.5" width="200" height="60" as="geometry" />
        </mxCell>
        <mxCell id="5" value="Read files" style="rounded=1;fillColor=#10739E;strokeColor=none;shadow=1;gradientColor=none;fontStyle=1;fontColor=#FFFFFF;fontSize=14;" parent="1" vertex="1">
          <mxGeometry x="802" y="354.5" width="200" height="60" as="geometry" />
        </mxCell>
        <mxCell id="6" value="Loop over oders" style="rounded=1;fillColor=#10739E;strokeColor=none;shadow=1;gradientColor=none;fontStyle=1;fontColor=#FFFFFF;fontSize=14;" parent="1" vertex="1">
          <mxGeometry x="1090" y="354.5" width="200" height="60" as="geometry" />
        </mxCell>
        <mxCell id="30" value="" style="edgeStyle=elbowEdgeStyle;elbow=vertical;strokeWidth=4;endArrow=block;endFill=1;fontStyle=1;strokeColor=#23445D;" parent="1" target="5" edge="1">
          <mxGeometry x="282" y="64.5" width="100" height="100" as="geometry">
            <mxPoint x="1030" y="320" as="sourcePoint" />
            <mxPoint x="382" y="64.5" as="targetPoint" />
            <Array as="points">
              <mxPoint x="960" y="324.5" />
            </Array>
          </mxGeometry>
        </mxCell>
        <mxCell id="31" value="" style="edgeStyle=elbowEdgeStyle;elbow=vertical;strokeWidth=4;endArrow=block;endFill=1;fontStyle=1;strokeColor=#23445D;" parent="1" target="4" edge="1">
          <mxGeometry x="282" y="64.5" width="100" height="100" as="geometry">
            <mxPoint x="1032" y="240" as="sourcePoint" />
            <mxPoint x="382" y="64.5" as="targetPoint" />
            <Array as="points">
              <mxPoint x="850" y="324.5" />
            </Array>
          </mxGeometry>
        </mxCell>
        <mxCell id="32" value="" style="edgeStyle=elbowEdgeStyle;elbow=vertical;strokeWidth=4;endArrow=block;endFill=1;fontStyle=1;strokeColor=#23445D;entryX=0.5;entryY=0;entryDx=0;entryDy=0;" parent="1" target="6" edge="1">
          <mxGeometry x="-198" y="64.5" width="100" height="100" as="geometry">
            <mxPoint x="880" y="325" as="sourcePoint" />
            <mxPoint x="-98" y="64.5" as="targetPoint" />
            <Array as="points">
              <mxPoint x="620" y="324.5" />
            </Array>
          </mxGeometry>
        </mxCell>
        <mxCell id="uTX9UfP-OH2B6d-9z1kE-55" value="&lt;span id=&quot;docs-internal-guid-120bae5a-7fff-3cc1-e373-b1d5db235957&quot;&gt;&lt;span style=&quot;font-size: 11pt; font-family: Arial; background-color: transparent; font-variant-numeric: normal; font-variant-east-asian: normal; vertical-align: baseline;&quot;&gt;Homework 3&amp;nbsp;&lt;/span&gt;&lt;/span&gt;&lt;span id=&quot;docs-internal-guid-120bae5a-7fff-3cc1-e373-b1d5db235957&quot;&gt;&lt;span style=&quot;font-size: 11pt; font-family: Arial; background-color: transparent; font-variant-numeric: normal; font-variant-east-asian: normal; vertical-align: baseline;&quot;&gt;hierarchy chart&lt;/span&gt;&lt;/span&gt;" style="text;whiteSpace=wrap;html=1;" vertex="1" parent="1">
          <mxGeometry x="930" y="100" width="200" height="30" as="geometry" />
        </mxCell>
        <mxCell id="uTX9UfP-OH2B6d-9z1kE-56" value="Write files" style="rounded=1;fillColor=#10739E;strokeColor=none;shadow=1;gradientColor=none;fontStyle=1;fontColor=#FFFFFF;fontSize=14;" vertex="1" parent="1">
          <mxGeometry x="1320" y="354.5" width="200" height="60" as="geometry" />
        </mxCell>
        <mxCell id="uTX9UfP-OH2B6d-9z1kE-57" value="" style="edgeStyle=elbowEdgeStyle;elbow=vertical;strokeWidth=4;endArrow=block;endFill=1;fontStyle=1;strokeColor=#23445D;entryX=0.5;entryY=0;entryDx=0;entryDy=0;" edge="1" parent="1" target="uTX9UfP-OH2B6d-9z1kE-56">
          <mxGeometry x="280" y="64.5" width="100" height="100" as="geometry">
            <mxPoint x="1030" y="240" as="sourcePoint" />
            <mxPoint x="1158" y="354.5" as="targetPoint" />
            <Array as="points">
              <mxPoint x="1098" y="324.5" />
            </Array>
          </mxGeometry>
        </mxCell>
        <mxCell id="uTX9UfP-OH2B6d-9z1kE-65" value="Read sales file" style="rounded=1;fillColor=#10739E;strokeColor=none;shadow=1;gradientColor=none;fontStyle=1;fontColor=#FFFFFF;fontSize=14;" vertex="1" parent="1">
          <mxGeometry x="433" y="524.5" width="200" height="60" as="geometry" />
        </mxCell>
        <mxCell id="uTX9UfP-OH2B6d-9z1kE-66" value="Read Customer file" style="rounded=1;fillColor=#10739E;strokeColor=none;shadow=1;gradientColor=none;fontStyle=1;fontColor=#FFFFFF;fontSize=14;" vertex="1" parent="1">
          <mxGeometry x="673" y="524.5" width="200" height="60" as="geometry" />
        </mxCell>
        <mxCell id="uTX9UfP-OH2B6d-9z1kE-67" value="Get invoice numbers" style="rounded=1;fillColor=#10739E;strokeColor=none;shadow=1;gradientColor=none;fontStyle=1;fontColor=#FFFFFF;fontSize=14;" vertex="1" parent="1">
          <mxGeometry x="433" y="610" width="200" height="60" as="geometry" />
        </mxCell>
        <mxCell id="uTX9UfP-OH2B6d-9z1kE-68" value="" style="edgeStyle=elbowEdgeStyle;elbow=vertical;strokeWidth=4;endArrow=block;endFill=1;fontStyle=1;strokeColor=#23445D;" edge="1" parent="1">
          <mxGeometry x="153" y="234.5" width="100" height="100" as="geometry">
            <mxPoint x="901" y="490" as="sourcePoint" />
            <mxPoint x="773" y="520" as="targetPoint" />
            <Array as="points">
              <mxPoint x="831" y="494.5" />
            </Array>
          </mxGeometry>
        </mxCell>
        <mxCell id="uTX9UfP-OH2B6d-9z1kE-69" value="" style="edgeStyle=elbowEdgeStyle;elbow=vertical;strokeWidth=4;endArrow=block;endFill=1;fontStyle=1;strokeColor=#23445D;" edge="1" parent="1" target="uTX9UfP-OH2B6d-9z1kE-65">
          <mxGeometry x="153" y="234.5" width="100" height="100" as="geometry">
            <mxPoint x="903" y="410" as="sourcePoint" />
            <mxPoint x="253" y="234.5" as="targetPoint" />
            <Array as="points">
              <mxPoint x="721" y="494.5" />
            </Array>
          </mxGeometry>
        </mxCell>
        <mxCell id="uTX9UfP-OH2B6d-9z1kE-71" value="Get customer details" style="rounded=1;fillColor=#10739E;strokeColor=none;shadow=1;gradientColor=none;fontStyle=1;fontColor=#FFFFFF;fontSize=14;" vertex="1" parent="1">
          <mxGeometry x="673" y="610" width="200" height="60" as="geometry" />
        </mxCell>
        <mxCell id="uTX9UfP-OH2B6d-9z1kE-73" value="" style="edgeStyle=elbowEdgeStyle;elbow=vertical;strokeWidth=4;endArrow=block;endFill=1;fontStyle=1;strokeColor=#23445D;" edge="1" parent="1">
          <mxGeometry x="-587.91" y="74.5" width="100" height="100" as="geometry">
            <mxPoint x="532.09" y="584.5" as="sourcePoint" />
            <mxPoint x="532.09" y="614.5" as="targetPoint" />
          </mxGeometry>
        </mxCell>
        <mxCell id="uTX9UfP-OH2B6d-9z1kE-76" value="" style="edgeStyle=elbowEdgeStyle;elbow=vertical;strokeWidth=4;endArrow=block;endFill=1;fontStyle=1;strokeColor=#23445D;" edge="1" parent="1">
          <mxGeometry x="-347.42999999999995" y="75" width="100" height="100" as="geometry">
            <mxPoint x="772.5700000000002" y="585" as="sourcePoint" />
            <mxPoint x="772.5700000000002" y="615" as="targetPoint" />
            <Array as="points">
              <mxPoint x="860.48" y="590.5" />
            </Array>
          </mxGeometry>
        </mxCell>
        <mxCell id="uTX9UfP-OH2B6d-9z1kE-77" value="Read Product file" style="rounded=1;fillColor=#10739E;strokeColor=none;shadow=1;gradientColor=none;fontStyle=1;fontColor=#FFFFFF;fontSize=14;" vertex="1" parent="1">
          <mxGeometry x="200" y="524.5" width="200" height="60" as="geometry" />
        </mxCell>
        <mxCell id="uTX9UfP-OH2B6d-9z1kE-78" value="Get price from product code" style="rounded=1;fillColor=#10739E;strokeColor=none;shadow=1;gradientColor=none;fontStyle=1;fontColor=#FFFFFF;fontSize=14;" vertex="1" parent="1">
          <mxGeometry x="200" y="610" width="200" height="60" as="geometry" />
        </mxCell>
        <mxCell id="uTX9UfP-OH2B6d-9z1kE-79" value="" style="edgeStyle=elbowEdgeStyle;elbow=vertical;strokeWidth=4;endArrow=block;endFill=1;fontStyle=1;strokeColor=#23445D;" edge="1" parent="1">
          <mxGeometry x="-820.9099999999999" y="74.5" width="100" height="100" as="geometry">
            <mxPoint x="299.09000000000015" y="584.5" as="sourcePoint" />
            <mxPoint x="299.09000000000015" y="614.5" as="targetPoint" />
          </mxGeometry>
        </mxCell>
        <mxCell id="uTX9UfP-OH2B6d-9z1kE-81" value="Calculate costs" style="rounded=1;fillColor=#10739E;strokeColor=none;shadow=1;gradientColor=none;fontStyle=1;fontColor=#FFFFFF;fontSize=14;" vertex="1" parent="1">
          <mxGeometry x="960" y="529" width="200" height="60" as="geometry" />
        </mxCell>
        <mxCell id="uTX9UfP-OH2B6d-9z1kE-82" value="Print order detials" style="rounded=1;fillColor=#10739E;strokeColor=none;shadow=1;gradientColor=none;fontStyle=1;fontColor=#FFFFFF;fontSize=14;" vertex="1" parent="1">
          <mxGeometry x="1200" y="529" width="200" height="60" as="geometry" />
        </mxCell>
        <mxCell id="uTX9UfP-OH2B6d-9z1kE-83" value="" style="edgeStyle=elbowEdgeStyle;elbow=vertical;strokeWidth=4;endArrow=block;endFill=1;fontStyle=1;strokeColor=#23445D;entryX=0.5;entryY=0;entryDx=0;entryDy=0;" edge="1" parent="1" target="uTX9UfP-OH2B6d-9z1kE-81">
          <mxGeometry x="440" y="239" width="100" height="100" as="geometry">
            <mxPoint x="1188" y="494.5" as="sourcePoint" />
            <mxPoint x="540" y="239" as="targetPoint" />
            <Array as="points">
              <mxPoint x="1118" y="499" />
            </Array>
          </mxGeometry>
        </mxCell>
        <mxCell id="uTX9UfP-OH2B6d-9z1kE-85" value="" style="edgeStyle=elbowEdgeStyle;elbow=vertical;strokeWidth=4;endArrow=block;endFill=1;fontStyle=1;strokeColor=#23445D;entryX=0.5;entryY=0;entryDx=0;entryDy=0;" edge="1" parent="1" target="uTX9UfP-OH2B6d-9z1kE-82">
          <mxGeometry x="-40" y="239" width="100" height="100" as="geometry">
            <mxPoint x="1190" y="499" as="sourcePoint" />
            <mxPoint x="60" y="239" as="targetPoint" />
            <Array as="points">
              <mxPoint x="778" y="499" />
            </Array>
          </mxGeometry>
        </mxCell>
        <mxCell id="uTX9UfP-OH2B6d-9z1kE-87" value="" style="edgeStyle=elbowEdgeStyle;elbow=vertical;strokeWidth=4;endArrow=block;endFill=1;fontStyle=1;strokeColor=#23445D;entryX=0.5;entryY=0;entryDx=0;entryDy=0;" edge="1" parent="1" target="uTX9UfP-OH2B6d-9z1kE-82">
          <mxGeometry x="438" y="239" width="100" height="100" as="geometry">
            <mxPoint x="1188" y="414.5" as="sourcePoint" />
            <mxPoint x="1530" y="529" as="targetPoint" />
            <Array as="points">
              <mxPoint x="1256" y="499" />
            </Array>
          </mxGeometry>
        </mxCell>
        <mxCell id="uTX9UfP-OH2B6d-9z1kE-88" value="Calculate price" style="rounded=1;fillColor=#10739E;strokeColor=none;shadow=1;gradientColor=none;fontStyle=1;fontColor=#FFFFFF;fontSize=14;" vertex="1" parent="1">
          <mxGeometry x="830" y="699" width="200" height="60" as="geometry" />
        </mxCell>
        <mxCell id="uTX9UfP-OH2B6d-9z1kE-89" value="Calculate total" style="rounded=1;fillColor=#10739E;strokeColor=none;shadow=1;gradientColor=none;fontStyle=1;fontColor=#FFFFFF;fontSize=14;" vertex="1" parent="1">
          <mxGeometry x="1070" y="699" width="200" height="60" as="geometry" />
        </mxCell>
        <mxCell id="uTX9UfP-OH2B6d-9z1kE-90" value="" style="edgeStyle=elbowEdgeStyle;elbow=vertical;strokeWidth=4;endArrow=block;endFill=1;fontStyle=1;strokeColor=#23445D;entryX=0.5;entryY=0;entryDx=0;entryDy=0;" edge="1" parent="1" target="uTX9UfP-OH2B6d-9z1kE-88">
          <mxGeometry x="310" y="409" width="100" height="100" as="geometry">
            <mxPoint x="1058" y="664.5" as="sourcePoint" />
            <mxPoint x="410" y="409" as="targetPoint" />
            <Array as="points">
              <mxPoint x="988" y="669" />
            </Array>
          </mxGeometry>
        </mxCell>
        <mxCell id="uTX9UfP-OH2B6d-9z1kE-91" value="" style="edgeStyle=elbowEdgeStyle;elbow=vertical;strokeWidth=4;endArrow=block;endFill=1;fontStyle=1;strokeColor=#23445D;entryX=0.5;entryY=0;entryDx=0;entryDy=0;" edge="1" parent="1" target="uTX9UfP-OH2B6d-9z1kE-89">
          <mxGeometry x="-170" y="409" width="100" height="100" as="geometry">
            <mxPoint x="1060" y="669" as="sourcePoint" />
            <mxPoint x="-70" y="409" as="targetPoint" />
            <Array as="points">
              <mxPoint x="648" y="669" />
            </Array>
          </mxGeometry>
        </mxCell>
        <mxCell id="uTX9UfP-OH2B6d-9z1kE-92" value="" style="edgeStyle=elbowEdgeStyle;elbow=vertical;strokeWidth=4;endArrow=block;endFill=1;fontStyle=1;strokeColor=#23445D;entryX=0.5;entryY=0;entryDx=0;entryDy=0;" edge="1" parent="1" target="uTX9UfP-OH2B6d-9z1kE-89">
          <mxGeometry x="260" y="-20" width="100" height="100" as="geometry">
            <mxPoint x="1058" y="584.5" as="sourcePoint" />
            <mxPoint x="1400" y="699" as="targetPoint" />
            <Array as="points">
              <mxPoint x="1126" y="669" />
            </Array>
            <mxPoint x="-54" y="-2" as="offset" />
          </mxGeometry>
        </mxCell>
        <mxCell id="uTX9UfP-OH2B6d-9z1kE-93" value="Calculate discounts" style="rounded=1;fillColor=#10739E;strokeColor=none;shadow=1;gradientColor=none;fontStyle=1;fontColor=#FFFFFF;fontSize=14;" vertex="1" parent="1">
          <mxGeometry x="1302" y="699" width="200" height="60" as="geometry" />
        </mxCell>
        <mxCell id="uTX9UfP-OH2B6d-9z1kE-94" value="" style="edgeStyle=elbowEdgeStyle;elbow=vertical;strokeWidth=4;endArrow=block;endFill=1;fontStyle=1;strokeColor=#23445D;entryX=0.5;entryY=0;entryDx=0;entryDy=0;" edge="1" parent="1" target="uTX9UfP-OH2B6d-9z1kE-93">
          <mxGeometry x="540" y="409" width="100" height="100" as="geometry">
            <mxPoint x="1060" y="669" as="sourcePoint" />
            <mxPoint x="1632" y="699" as="targetPoint" />
            <Array as="points">
              <mxPoint x="1358" y="669" />
            </Array>
          </mxGeometry>
        </mxCell>
        <mxCell id="uTX9UfP-OH2B6d-9z1kE-95" value="Write costs to sales file" style="rounded=1;fillColor=#10739E;strokeColor=none;shadow=1;gradientColor=none;fontStyle=1;fontColor=#FFFFFF;fontSize=14;" vertex="1" parent="1">
          <mxGeometry x="1432" y="529" width="200" height="60" as="geometry" />
        </mxCell>
        <mxCell id="uTX9UfP-OH2B6d-9z1kE-96" value="" style="edgeStyle=elbowEdgeStyle;elbow=vertical;strokeWidth=4;endArrow=block;endFill=1;fontStyle=1;strokeColor=#23445D;entryX=0.5;entryY=0;entryDx=0;entryDy=0;" edge="1" parent="1" target="uTX9UfP-OH2B6d-9z1kE-95">
          <mxGeometry x="670" y="239" width="100" height="100" as="geometry">
            <mxPoint x="1419.9999999999995" y="414.5" as="sourcePoint" />
            <mxPoint x="1762" y="529" as="targetPoint" />
            <Array as="points">
              <mxPoint x="1488" y="499" />
            </Array>
          </mxGeometry>
        </mxCell>
      </root>
    </mxGraphModel>
  </diagram>
  <diagram id="g72KdCJ_HcEn71HY_5JC" name="Page-2">
    <mxGraphModel dx="1049" dy="1591" grid="1" gridSize="10" guides="1" tooltips="1" connect="1" arrows="1" fold="1" page="1" pageScale="1" pageWidth="827" pageHeight="1169" math="0" shadow="0">
      <root>
        <mxCell id="0" />
        <mxCell id="1" parent="0" />
        <mxCell id="d90yPBZ4SZs-xgIhAt26-1" value="Main" style="rounded=1;fillColor=#10739E;strokeColor=none;shadow=1;gradientColor=none;fontStyle=1;fontColor=#FFFFFF;fontSize=14;" vertex="1" parent="1">
          <mxGeometry x="1970" y="235.5" width="200" height="60" as="geometry" />
        </mxCell>
        <mxCell id="d90yPBZ4SZs-xgIhAt26-2" value="Initialize" style="rounded=1;fillColor=#10739E;strokeColor=none;shadow=1;gradientColor=none;fontStyle=1;fontColor=#FFFFFF;fontSize=14;" vertex="1" parent="1">
          <mxGeometry x="1678" y="404.5" width="200" height="60" as="geometry" />
        </mxCell>
        <mxCell id="d90yPBZ4SZs-xgIhAt26-3" value="Processdata" style="rounded=1;fillColor=#10739E;strokeColor=none;shadow=1;gradientColor=none;fontStyle=1;fontColor=#FFFFFF;fontSize=14;" vertex="1" parent="1">
          <mxGeometry x="1968" y="404.5" width="200" height="60" as="geometry" />
        </mxCell>
        <mxCell id="d90yPBZ4SZs-xgIhAt26-4" value="Calculate average" style="rounded=1;fillColor=#10739E;strokeColor=none;shadow=1;gradientColor=none;fontStyle=1;fontColor=#FFFFFF;fontSize=14;" vertex="1" parent="1">
          <mxGeometry x="2258" y="404.5" width="200" height="60" as="geometry" />
        </mxCell>
        <mxCell id="d90yPBZ4SZs-xgIhAt26-5" value="" style="edgeStyle=elbowEdgeStyle;elbow=vertical;strokeWidth=4;endArrow=block;endFill=1;fontStyle=1;strokeColor=#23445D;" edge="1" parent="1" target="d90yPBZ4SZs-xgIhAt26-3">
          <mxGeometry x="1390" y="114.5" width="100" height="100" as="geometry">
            <mxPoint x="2068" y="290" as="sourcePoint" />
            <mxPoint x="1490" y="114.5" as="targetPoint" />
            <Array as="points">
              <mxPoint x="2068" y="374.5" />
            </Array>
          </mxGeometry>
        </mxCell>
        <mxCell id="d90yPBZ4SZs-xgIhAt26-6" value="" style="edgeStyle=elbowEdgeStyle;elbow=vertical;strokeWidth=4;endArrow=block;endFill=1;fontStyle=1;strokeColor=#23445D;" edge="1" parent="1" target="d90yPBZ4SZs-xgIhAt26-2">
          <mxGeometry x="1350" y="114.5" width="100" height="100" as="geometry">
            <mxPoint x="2098" y="370" as="sourcePoint" />
            <mxPoint x="1450" y="114.5" as="targetPoint" />
            <Array as="points">
              <mxPoint x="1918" y="374.5" />
            </Array>
          </mxGeometry>
        </mxCell>
        <mxCell id="d90yPBZ4SZs-xgIhAt26-7" value="" style="edgeStyle=elbowEdgeStyle;elbow=vertical;strokeWidth=4;endArrow=block;endFill=1;fontStyle=1;strokeColor=#23445D;entryX=0.5;entryY=0;entryDx=0;entryDy=0;" edge="1" parent="1" target="d90yPBZ4SZs-xgIhAt26-4">
          <mxGeometry x="840" y="114.5" width="100" height="100" as="geometry">
            <mxPoint x="1918" y="375" as="sourcePoint" />
            <mxPoint x="940" y="114.5" as="targetPoint" />
            <Array as="points">
              <mxPoint x="1658" y="374.5" />
            </Array>
          </mxGeometry>
        </mxCell>
        <mxCell id="d90yPBZ4SZs-xgIhAt26-8" value="&lt;span id=&quot;docs-internal-guid-120bae5a-7fff-3cc1-e373-b1d5db235957&quot;&gt;&lt;span style=&quot;font-size: 11pt; font-family: Arial; background-color: transparent; font-variant-numeric: normal; font-variant-east-asian: normal; vertical-align: baseline;&quot;&gt;Worksheet 3 Thinking procedurally&amp;nbsp;&amp;nbsp;&lt;/span&gt;&lt;/span&gt;&lt;span id=&quot;docs-internal-guid-120bae5a-7fff-3cc1-e373-b1d5db235957&quot;&gt;&lt;span style=&quot;font-size: 11pt; font-family: Arial; background-color: transparent; font-variant-numeric: normal; font-variant-east-asian: normal; vertical-align: baseline;&quot;&gt;hierarchy chart&lt;/span&gt;&lt;/span&gt;" style="text;whiteSpace=wrap;html=1;" vertex="1" parent="1">
          <mxGeometry x="1968" y="150" width="200" height="30" as="geometry" />
        </mxCell>
        <mxCell id="d90yPBZ4SZs-xgIhAt26-36" value="Promt for numbers" style="rounded=1;fillColor=#10739E;strokeColor=none;shadow=1;gradientColor=none;fontStyle=1;fontColor=#FFFFFF;fontSize=14;" vertex="1" parent="1">
          <mxGeometry x="1748" y="574.5" width="200" height="60" as="geometry" />
        </mxCell>
        <mxCell id="d90yPBZ4SZs-xgIhAt26-37" value="find max" style="rounded=1;fillColor=#10739E;strokeColor=none;shadow=1;gradientColor=none;fontStyle=1;fontColor=#FFFFFF;fontSize=14;" vertex="1" parent="1">
          <mxGeometry x="1968" y="574.5" width="200" height="60" as="geometry" />
        </mxCell>
        <mxCell id="d90yPBZ4SZs-xgIhAt26-38" value="Perform calcuations" style="rounded=1;fillColor=#10739E;strokeColor=none;shadow=1;gradientColor=none;fontStyle=1;fontColor=#FFFFFF;fontSize=14;" vertex="1" parent="1">
          <mxGeometry x="2198" y="574.5" width="200" height="60" as="geometry" />
        </mxCell>
        <mxCell id="d90yPBZ4SZs-xgIhAt26-39" value="" style="edgeStyle=elbowEdgeStyle;elbow=vertical;strokeWidth=4;endArrow=block;endFill=1;fontStyle=1;strokeColor=#23445D;" edge="1" parent="1" target="d90yPBZ4SZs-xgIhAt26-37">
          <mxGeometry x="1390" y="284.5" width="100" height="100" as="geometry">
            <mxPoint x="2068" y="460" as="sourcePoint" />
            <mxPoint x="1490" y="284.5" as="targetPoint" />
            <Array as="points">
              <mxPoint x="2068" y="544.5" />
            </Array>
          </mxGeometry>
        </mxCell>
        <mxCell id="d90yPBZ4SZs-xgIhAt26-40" value="" style="edgeStyle=elbowEdgeStyle;elbow=vertical;strokeWidth=4;endArrow=block;endFill=1;fontStyle=1;strokeColor=#23445D;" edge="1" parent="1" target="d90yPBZ4SZs-xgIhAt26-36">
          <mxGeometry x="1320" y="284.5" width="100" height="100" as="geometry">
            <mxPoint x="2068" y="540" as="sourcePoint" />
            <mxPoint x="1420" y="284.5" as="targetPoint" />
            <Array as="points">
              <mxPoint x="1888" y="544.5" />
            </Array>
          </mxGeometry>
        </mxCell>
        <mxCell id="d90yPBZ4SZs-xgIhAt26-41" value="" style="edgeStyle=elbowEdgeStyle;elbow=vertical;strokeWidth=4;endArrow=block;endFill=1;fontStyle=1;strokeColor=#23445D;" edge="1" parent="1">
          <mxGeometry x="840" y="284.5" width="100" height="100" as="geometry">
            <mxPoint x="1918" y="545" as="sourcePoint" />
            <mxPoint x="2258" y="570" as="targetPoint" />
            <Array as="points">
              <mxPoint x="1658" y="544.5" />
            </Array>
          </mxGeometry>
        </mxCell>
      </root>
    </mxGraphModel>
  </diagram>
</mxfile>
